<?xml version="1.0" encoding="UTF-8"?>
<svg xmlns="http://www.w3.org/2000/svg" xmlns:xlink="http://www.w3.org/1999/xlink" width="500px" height="405px" viewBox="0 0 3105 405" version="1.1">
<g id="surface3">
<path style=" stroke:none;fill-rule:nonzero;fill:rgb(0%,0%,0%);fill-opacity:1;" d="M 232.875 48.9375 C 232.875 15.1875 200.8125 6.75 175.5 6.75 L 175.5 11.8125 C 190.6875 11.8125 202.5 16.875 202.5 28.6875 C 202.5 35.4375 197.4375 45.5625 182.25 45.5625 C 170.4375 45.5625 145.125 38.8125 126.5625 32.0625 C 104.625 23.625 84.375 16.875 67.5 16.875 C 33.75 16.875 10.125 42.1875 10.125 70.875 C 10.125 96.1875 28.6875 104.625 35.4375 108 L 37.125 104.625 C 33.75 101.25 28.6875 97.875 28.6875 87.75 C 28.6875 81 35.4375 69.1875 52.3125 69.1875 C 67.5 69.1875 87.75 75.9375 114.75 84.375 C 138.375 91.125 163.6875 96.1875 177.1875 97.875 L 177.1875 150.1875 L 151.875 172.125 L 151.875 173.8125 L 177.1875 195.75 L 177.1875 268.3125 C 163.6875 276.75 148.5 278.4375 135 278.4375 C 109.6875 278.4375 87.75 271.6875 69.1875 251.4375 L 138.375 217.6875 L 138.375 101.25 L 54 138.375 C 60.75 116.4375 79.3125 101.25 97.875 91.125 L 96.1875 86.0625 C 45.5625 99.5625 0 146.8125 0 204.1875 C 0 271.6875 55.6875 322.3125 118.125 322.3125 C 185.625 322.3125 229.5 268.3125 229.5 212.625 L 226.125 212.625 C 216 234.5625 200.8125 254.8125 182.25 264.9375 L 182.25 195.75 L 209.25 173.8125 L 209.25 172.125 L 182.25 150.1875 L 182.25 97.875 C 207.5625 97.875 232.875 81 232.875 48.9375 Z M 86.0625 234.5625 L 65.8125 244.6875 C 54 229.5 47.25 209.25 47.25 180.5625 C 47.25 168.75 47.25 155.25 50.625 145.125 L 86.0625 129.9375 Z M 264.9375 273.375 L 243 290.25 L 246.375 293.625 L 256.5 285.1875 L 293.625 318.9375 L 344.25 285.1875 L 342.5625 281.8125 L 329.0625 290.25 L 312.1875 273.375 L 312.1875 158.625 L 325.6875 148.5 L 354.375 172.125 L 354.375 275.0625 C 354.375 339.1875 340.875 349.3125 312.1875 359.4375 L 312.1875 364.5 C 359.4375 366.1875 403.3125 351 403.3125 268.3125 L 403.3125 156.9375 L 418.5 145.125 L 415.125 141.75 L 401.625 151.875 L 359.4375 116.4375 L 312.1875 151.875 L 312.1875 13.5 L 308.8125 13.5 L 249.75 54 L 249.75 57.375 C 256.5 60.75 266.625 64.125 266.625 82.6875 Z M 573.75 254.8125 L 531.5625 286.875 L 489.375 253.125 L 489.375 232.875 L 568.6875 178.875 L 568.6875 177.1875 L 528.1875 116.4375 L 440.4375 163.6875 L 440.4375 275.0625 L 423.5625 288.5625 L 426.9375 291.9375 L 442.125 280.125 L 499.5 322.3125 L 575.4375 261.5625 Z M 489.375 226.125 L 489.375 143.4375 L 492.75 141.75 L 529.875 200.8125 Z M 896.0625 33.75 C 896.0625 28.6875 894.375 23.625 892.6875 18.5625 L 889.3125 18.5625 C 884.25 32.0625 877.5 38.8125 860.625 38.8125 C 845.4375 38.8125 835.3125 30.375 828.5625 23.625 L 779.625 79.3125 L 783 82.6875 L 799.875 67.5 C 810 75.9375 818.4375 82.6875 842.0625 84.375 L 842.0625 224.4375 L 742.5 54 C 734.0625 40.5 722.25 21.9375 698.625 21.9375 C 671.625 21.9375 648 45.5625 651.375 82.6875 L 656.4375 82.6875 C 658.125 72.5625 663.1875 60.75 675 60.75 C 683.4375 60.75 691.875 69.1875 696.9375 77.625 L 696.9375 133.3125 C 666.5625 133.3125 646.3125 146.8125 646.3125 172.125 C 646.3125 185.625 653.0625 205.875 673.3125 210.9375 L 673.3125 207.5625 C 669.9375 204.1875 668.25 200.8125 668.25 195.75 C 668.25 187.3125 675 180.5625 686.8125 180.5625 L 695.25 180.5625 L 695.25 251.4375 C 659.8125 251.4375 631.125 271.6875 631.125 305.4375 C 631.125 337.5 658.125 352.6875 688.5 351 L 688.5 347.625 C 669.9375 345.9375 661.5 337.5 661.5 325.6875 C 661.5 310.5 671.625 303.75 685.125 303.75 C 698.625 303.75 710.4375 312.1875 718.875 322.3125 L 767.8125 268.3125 L 764.4375 264.9375 L 752.625 278.4375 C 734.0625 261.5625 723.9375 256.5 702 253.125 L 702 84.375 L 837 320.625 L 847.125 320.625 L 847.125 84.375 C 872.4375 82.6875 896.0625 62.4375 896.0625 33.75 Z M 1019.25 254.8125 L 977.0625 286.875 L 934.875 253.125 L 934.875 232.875 L 1014.1875 178.875 L 1014.1875 177.1875 L 973.6875 116.4375 L 885.9375 163.6875 L 885.9375 275.0625 L 869.0625 288.5625 L 872.4375 291.9375 L 887.625 280.125 L 945 322.3125 L 1020.9375 261.5625 Z M 934.875 226.125 L 934.875 143.4375 L 938.25 141.75 L 975.375 200.8125 Z M 1294.3125 135 L 1282.5 143.4375 L 1250.4375 116.4375 L 1213.3125 150.1875 L 1228.5 165.375 L 1228.5 291.9375 L 1188 266.625 L 1188 162 L 1201.5 153.5625 L 1162.6875 116.4375 L 1125.5625 150.1875 L 1140.75 165.375 L 1140.75 286.875 L 1135.6875 290.25 L 1100.25 264.9375 L 1100.25 163.6875 C 1100.25 140.0625 1088.4375 133.3125 1074.9375 124.875 C 1063.125 116.4375 1056.375 111.375 1056.375 99.5625 C 1056.375 89.4375 1066.5 84.375 1071.5625 81 L 1071.5625 77.625 C 1058.0625 77.625 1022.625 91.125 1022.625 123.1875 C 1022.625 140.0625 1031.0625 146.8125 1039.5 155.25 C 1047.9375 163.6875 1056.375 170.4375 1056.375 185.625 L 1056.375 283.5 L 1037.8125 297 L 1041.1875 300.375 L 1058.0625 286.875 L 1096.875 320.625 L 1139.0625 291.9375 L 1186.3125 320.625 L 1275.75 268.3125 L 1275.75 155.25 L 1297.6875 138.375 Z M 1608.1875 42.1875 L 1591.3125 57.375 L 1554.1875 23.625 L 1498.5 64.125 L 1498.5 27 L 1493.4375 27 L 1495.125 300.375 C 1490.0625 300.375 1474.875 297 1463.0625 293.625 L 1459.6875 65.8125 C 1459.6875 48.9375 1447.875 25.3125 1417.5 25.3125 C 1387.125 25.3125 1366.875 48.9375 1366.875 72.5625 L 1371.9375 72.5625 C 1373.625 62.4375 1378.6875 54 1388.8125 54 C 1398.9375 54 1407.375 60.75 1407.375 82.6875 L 1407.375 148.5 C 1377 150.1875 1358.4375 167.0625 1358.4375 189 C 1358.4375 202.5 1365.1875 222.75 1385.4375 222.75 L 1385.4375 219.375 C 1378.6875 216 1377 210.9375 1377 207.5625 C 1377 197.4375 1385.4375 194.0625 1398.9375 194.0625 L 1405.6875 194.0625 L 1405.6875 298.6875 C 1380.375 307.125 1370.25 325.6875 1370.25 345.9375 C 1370.25 374.625 1392.1875 394.875 1425.9375 394.875 C 1449.5625 394.875 1469.8125 391.5 1490.0625 386.4375 C 1506.9375 383.0625 1528.875 378 1539 378 C 1552.5 378 1557.5625 384.75 1557.5625 393.1875 C 1557.5625 405 1552.5 410.0625 1545.75 411.75 L 1545.75 415.125 C 1572.75 410.0625 1589.625 393.1875 1589.625 367.875 C 1589.625 342.5625 1564.3125 327.375 1537.3125 327.375 C 1523.8125 327.375 1495.125 332.4375 1474.875 335.8125 C 1451.25 340.875 1427.625 344.25 1420.875 344.25 C 1409.0625 344.25 1395.5625 339.1875 1395.5625 322.3125 C 1395.5625 308.8125 1407.375 297 1436.0625 297 C 1451.25 297 1469.8125 298.6875 1488.375 303.75 C 1508.625 308.8125 1527.1875 313.875 1544.0625 313.875 C 1569.375 313.875 1591.3125 305.4375 1591.3125 270 L 1591.3125 62.4375 L 1611.5625 45.5625 Z M 1539 145.125 C 1533.9375 150.1875 1527.1875 155.25 1518.75 155.25 C 1510.3125 155.25 1501.875 150.1875 1498.5 145.125 L 1498.5 70.875 L 1515.375 59.0625 L 1539 81 Z M 1539 195.75 C 1535.625 192.375 1527.1875 187.3125 1518.75 187.3125 C 1510.3125 187.3125 1501.875 192.375 1498.5 195.75 L 1498.5 151.875 C 1501.875 155.25 1510.3125 160.3125 1518.75 160.3125 C 1527.1875 160.3125 1535.625 155.25 1539 151.875 Z M 1539 275.0625 C 1539 288.5625 1530.5625 302.0625 1512 302.0625 L 1498.5 302.0625 L 1498.5 202.5 C 1501.875 199.125 1510.3125 194.0625 1518.75 194.0625 C 1527.1875 194.0625 1533.9375 199.125 1539 202.5 Z M 1770.1875 155.25 L 1716.1875 116.4375 L 1633.5 163.6875 L 1633.5 273.375 L 1616.625 286.875 L 1618.3125 290.25 L 1631.8125 280.125 L 1685.8125 320.625 L 1770.1875 270 Z M 1679.0625 261.5625 L 1679.0625 140.0625 L 1721.25 170.4375 L 1721.25 290.25 Z M 1930.5 119.8125 L 1927.125 119.8125 C 1922.0625 123.1875 1917 126.5625 1911.9375 126.5625 C 1905.1875 126.5625 1896.75 123.1875 1893.375 118.125 L 1890 118.125 L 1861.3125 150.1875 L 1832.625 118.125 L 1782 151.875 L 1783.6875 155.25 L 1797.1875 146.8125 L 1814.0625 165.375 L 1814.0625 271.6875 L 1792.125 288.5625 L 1795.5 291.9375 L 1805.625 283.5 L 1846.125 317.25 L 1898.4375 281.8125 L 1896.75 278.4375 L 1881.5625 286.875 L 1861.3125 270 L 1861.3125 151.875 C 1869.75 160.3125 1879.875 168.75 1891.6875 168.75 C 1915.3125 170.4375 1928.8125 146.8125 1930.5 119.8125 Z M 2133 281.8125 L 2075.625 320.625 L 1998 202.5 L 2053.6875 116.4375 L 2057.0625 116.4375 C 2063.8125 123.1875 2073.9375 129.9375 2085.75 129.9375 C 2097.5625 129.9375 2106 123.1875 2111.0625 116.4375 L 2114.4375 116.4375 C 2112.75 150.1875 2089.125 170.4375 2072.25 170.4375 C 2055.375 170.4375 2046.9375 162 2036.8125 156.9375 L 2031.75 165.375 L 2116.125 290.25 L 2133 280.125 Z M 1947.375 273.375 L 1925.4375 290.25 L 1928.8125 293.625 L 1938.9375 285.1875 L 1976.0625 318.9375 L 2026.6875 285.1875 L 2023.3125 281.8125 L 2009.8125 290.25 L 1992.9375 273.375 L 1992.9375 13.5 L 1991.25 13.5 L 1930.5 54 L 1930.5 57.375 C 1937.25 60.75 1947.375 62.4375 1947.375 82.6875 Z M 2413.125 48.9375 C 2413.125 15.1875 2381.0625 6.75 2355.75 6.75 L 2355.75 11.8125 C 2370.9375 11.8125 2382.75 16.875 2382.75 28.6875 C 2382.75 35.4375 2377.6875 45.5625 2362.5 45.5625 C 2350.6875 45.5625 2325.375 38.8125 2306.8125 32.0625 C 2284.875 25.3125 2264.625 18.5625 2247.75 18.5625 C 2214 18.5625 2190.375 43.875 2190.375 72.5625 C 2190.375 97.875 2208.9375 106.3125 2215.6875 109.6875 L 2217.375 106.3125 C 2212.3125 102.9375 2207.25 99.5625 2207.25 89.4375 C 2207.25 82.6875 2214 70.875 2230.875 70.875 C 2246.0625 70.875 2266.3125 77.625 2293.3125 86.0625 C 2316.9375 92.8125 2342.25 97.875 2355.75 99.5625 L 2355.75 151.875 L 2330.4375 173.8125 L 2330.4375 175.5 L 2355.75 197.4375 L 2355.75 270 C 2342.25 278.4375 2327.0625 280.125 2313.5625 280.125 C 2288.25 280.125 2266.3125 273.375 2247.75 253.125 L 2316.9375 219.375 L 2316.9375 101.25 L 2232.5625 138.375 C 2241 116.4375 2259.5625 101.25 2276.4375 89.4375 L 2274.75 86.0625 C 2224.125 99.5625 2178.5625 145.125 2178.5625 202.5 C 2178.5625 270 2234.25 320.625 2296.6875 320.625 C 2364.1875 320.625 2408.0625 266.625 2408.0625 210.9375 L 2404.6875 210.9375 C 2394.5625 232.875 2379.375 253.125 2360.8125 263.25 L 2360.8125 194.0625 L 2387.8125 172.125 L 2387.8125 170.4375 L 2362.5 148.5 L 2362.5 97.875 C 2387.8125 97.875 2413.125 81 2413.125 48.9375 Z M 2266.3125 234.5625 L 2246.0625 244.6875 C 2234.25 229.5 2227.5 209.25 2227.5 180.5625 C 2227.5 168.75 2229.1875 155.25 2232.5625 145.125 L 2268 129.9375 Z M 2472.1875 32.0625 L 2470.5 32.0625 L 2436.75 60.75 L 2436.75 62.4375 L 2465.4375 94.5 L 2468.8125 94.5 L 2502.5625 65.8125 L 2502.5625 64.125 Z M 2522.8125 281.8125 L 2509.3125 290.25 L 2492.4375 273.375 L 2492.4375 156.9375 L 2509.3125 145.125 L 2505.9375 141.75 L 2494.125 151.875 L 2463.75 116.4375 L 2414.8125 150.1875 L 2418.1875 155.25 L 2430 146.8125 L 2445.1875 165.375 L 2445.1875 275.0625 L 2423.25 291.9375 L 2424.9375 295.3125 L 2436.75 286.875 L 2473.875 320.625 L 2524.5 286.875 Z M 2804.625 280.125 L 2792.8125 288.5625 L 2774.25 271.6875 L 2774.25 156.9375 L 2791.125 143.4375 L 2787.75 140.0625 L 2774.25 151.875 L 2735.4375 116.4375 L 2684.8125 151.875 L 2646 116.4375 L 2598.75 151.875 L 2568.375 116.4375 L 2519.4375 150.1875 L 2521.125 155.25 L 2532.9375 146.8125 L 2549.8125 165.375 L 2549.8125 275.0625 L 2536.3125 288.5625 L 2575.125 320.625 L 2612.25 286.875 L 2597.0625 271.6875 L 2597.0625 156.9375 L 2612.25 146.8125 L 2637.5625 170.4375 L 2637.5625 271.6875 L 2624.0625 285.1875 L 2662.875 317.25 L 2700 283.5 L 2684.8125 268.3125 L 2684.8125 156.9375 L 2698.3125 148.5 L 2725.3125 172.125 L 2725.3125 273.375 L 2713.5 285.1875 L 2752.3125 320.625 L 2804.625 285.1875 Z M 2951.4375 254.8125 L 2909.25 286.875 L 2867.0625 253.125 L 2867.0625 232.875 L 2946.375 178.875 L 2946.375 177.1875 L 2905.875 116.4375 L 2818.125 163.6875 L 2818.125 278.4375 L 2877.1875 320.625 L 2953.125 259.875 Z M 2867.0625 226.125 L 2867.0625 143.4375 L 2870.4375 141.75 L 2907.5625 200.8125 Z M 3105 210.9375 L 3072.9375 185.625 C 3094.875 167.0625 3103.3125 141.75 3103.3125 124.875 L 3103.3125 114.75 L 3099.9375 114.75 C 3096.5625 123.1875 3089.8125 131.625 3076.3125 131.625 C 3062.8125 131.625 3054.375 124.875 3045.9375 114.75 L 2970 156.9375 L 2970 217.6875 L 2998.6875 239.625 C 2970 264.9375 2964.9375 281.8125 2964.9375 295.3125 C 2964.9375 312.1875 2973.375 324 2986.875 329.0625 L 2988.5625 325.6875 C 2985.1875 322.3125 2981.8125 320.625 2981.8125 312.1875 C 2981.8125 307.125 2988.5625 298.6875 3002.0625 298.6875 C 3018.9375 298.6875 3029.0625 310.5 3034.125 315.5625 L 3106.6875 271.6875 L 3106.6875 210.9375 Z M 3086.4375 160.3125 C 3074.625 180.5625 3049.3125 200.8125 3034.125 210.9375 L 3015.5625 195.75 L 3015.5625 136.6875 C 3022.3125 153.5625 3040.875 167.0625 3059.4375 167.0625 C 3071.25 167.0625 3078 165.375 3086.4375 160.3125 Z M 3057.75 295.3125 C 3049.3125 276.75 3029.0625 263.25 3008.8125 263.25 C 3003.75 263.25 2990.25 263.25 2976.75 271.6875 C 2985.1875 258.1875 3007.125 234.5625 3035.8125 217.6875 L 3056.0625 234.5625 Z M 3057.75 295.3125 "/>
</g>
</svg>
